<?xml version="1.0" encoding="utf-8"?>
<!-- Generator: Adobe Illustrator 27.8.0, SVG Export Plug-In . SVG Version: 6.00 Build 0)  -->
<svg version="1.1" id="Ebene_1" xmlns="http://www.w3.org/2000/svg" xmlns:xlink="http://www.w3.org/1999/xlink" x="0px" y="0px"
	 viewBox="0 0 110.1 110" xml:space="preserve">
<style type="text/css">
	.st0{fill:#FFFFFF;}
</style>
<g id="XMLID_561_">
	<path id="XMLID_563_" class="st0" d="M87.8,98c-4.8-3.6-11.8-6.3-19.3-9.2c-8.9-3.4-19-7.3-26.5-13.4C33.4,68.6,29.2,60,29.2,49.1
		c0-9.8,4-18.1,11.7-24.1c8.6-6.8,21.6-10.3,37.6-10.3c4.4,0,8.7,0.3,12.6,0.8c0.3,0,0.7-0.1,0.8-0.5c0.2-0.3,0.1-0.7-0.2-0.9
		C81.7,5,68.6,0,55,0C40.3,0,26.5,5.7,16.1,16.1C5.7,26.5,0,40.3,0,55c0,14.7,5.7,28.5,16.1,38.9C26.5,104.3,40.3,110,55,110
		c11.9,0,23.2-3.7,32.7-10.8c0.2-0.2,0.3-0.4,0.3-0.6C88.1,98.4,88,98.2,87.8,98z"/>
	<path id="XMLID_562_" class="st0" d="M109.8,49.9c0-0.2-0.1-0.4-0.3-0.5C98.1,39.9,88.8,36,77.5,36c-6,0-10.6,1.2-13.7,3.6
		c-2.7,2.1-4.1,4.9-4.1,8.3c0,9.4,11.5,13.8,24.9,18.8c6.9,2.6,14,5.2,20.6,8.9c0.1,0.1,0.2,0.1,0.4,0.1c0.1,0,0.2,0,0.3-0.1
		c0.2-0.1,0.4-0.2,0.5-0.5c2.5-6.4,3.8-13.2,3.8-20.1C110.1,53.4,110,51.7,109.8,49.9z"/>
</g>
</svg>
