<?xml version="1.0" encoding="UTF-8"?>
<svg id="a" data-name="Ebene 1" xmlns="http://www.w3.org/2000/svg" viewBox="0 0 143.08 76.9">
  <g>
    <path d="m127.61,68.15c-3.31-2.49-8.15-4.35-13.33-6.35-6.15-2.35-13.12-5.04-18.3-9.25-5.94-4.7-8.84-10.63-8.84-18.16,0-6.77,2.76-12.5,8.08-16.64,5.94-4.7,14.92-7.11,25.97-7.11,3.04,0,6.01.21,8.7.55.21,0,.48-.07.55-.35.14-.21.07-.48-.14-.62C123.4,3.92,114.35.47,104.96.47c-10.15,0-19.68,3.94-26.86,11.12-7.18,7.18-11.12,16.71-11.12,26.86s3.94,19.68,11.12,26.86c7.18,7.18,16.71,11.12,26.86,11.12,8.22,0,16.02-2.56,22.58-7.46.14-.14.21-.28.21-.41.07-.14,0-.28-.14-.41Z" style="fill: #fff; stroke-width: 0px;"/>
    <path d="m142.8,34.93c0-.14-.07-.28-.21-.35-7.87-6.56-14.29-9.25-22.1-9.25-4.14,0-7.32.83-9.46,2.49-1.86,1.45-2.83,3.38-2.83,5.73,0,6.49,7.94,9.53,17.2,12.98,4.76,1.8,9.67,3.59,14.23,6.15.07.07.14.07.28.07.07,0,.14,0,.21-.07.14-.07.28-.14.35-.35,1.73-4.42,2.62-9.12,2.62-13.88-.07-1.1-.14-2.28-.28-3.52Z" style="fill: #fff; stroke-width: 0px;"/>
  </g>
  <g id="b" data-name="compacte">
    <path d="m38.45,0C17.21,0,0,17.21,0,38.45s17.21,38.45,38.45,38.45,38.45-17.22,38.45-38.45S59.69,0,38.45,0Zm20.74,22.25c-1.78.06-3.01-1-3.07-2.62-.02-.59.13-1.11.54-1.72.4-.78.48-.87.47-1.2-.04-1.02-1.57-1.06-1.99-1.04-5.77.19-7.29,7.98-8.53,14.31l-.6,3.34c3.32.49,5.68-.11,7-.96,1.85-1.2-.52-2.44-.22-3.81.3-1.39,1.57-2.07,2.58-2.1,1.41-.03,2.42,1.43,2.39,2.91-.05,2.46-3.31,5.83-9.82,5.69-.79-.02-1.53-.07-2.21-.16l-1.23,6.79c-1.1,5.14-2.56,12.16-7.8,18.29-4.49,5.34-9.06,6.17-11.1,6.24-3.82.13-6.36-1.91-6.44-4.63-.09-2.63,2.24-4.07,3.77-4.12,2.04-.07,3.45,1.41,3.5,3.11.05,1.44-.7,1.89-1.2,2.16-.33.27-.83.54-.81,1.13.01.26.29.84,1.13.81,1.61-.06,2.69-.86,3.44-1.39,3.72-3.1,5.16-8.51,7.03-18.35l.39-2.39c.64-3.2,1.35-6.77,2.43-10.32-2.62-1.98-4.2-4.42-7.73-5.38-2.42-.66-3.89-.1-4.93,1.21-1.23,1.55-.82,3.57.37,4.76l1.96,2.17c2.4,2.78,3.72,4.94,3.22,7.84-.79,4.64-6.31,8.2-12.85,6.19-5.58-1.72-6.62-5.67-5.95-7.84.59-1.91,2.11-2.28,3.6-1.82,1.59.49,2.22,2.43,1.76,3.92-.05.16-.13.42-.3.78-.19.41-.53.77-.67,1.25-.36,1.17,1.24,2,2.36,2.34,2.5.77,4.93-.54,5.55-2.56.57-1.86-.6-3.15-1.09-3.65l-2.36-2.53c-1.08-1.2-3.46-4.56-2.3-8.33.45-1.45,1.39-3,2.76-4.02,2.89-2.15,6.02-2.5,9.01-1.64,3.87,1.11,5.72,3.67,8.13,5.64,1.35-3.96,3.22-7.83,6.03-11.09,2.54-2.98,5.95-5.13,9.85-5.27,3.9-.13,6.85,1.64,6.95,4.44.04,1.19-.64,3.51-3.02,3.59Z" style="fill: #fff; stroke-width: 0px;"/>
  </g>
</svg>